<svg width="30" height="30" fill="none" xmlns="http://www.w3.org/2000/svg"><path d="M28.676 1.28A4.454 4.454 0 0025.546 0H4.396A4.4 4.4 0 000 4.395v21.21A4.4 4.4 0 004.395 30h21.21A4.4 4.4 0 0030 25.605V4.395c0-1.175-.47-2.28-1.324-3.115zM15.88 15.88h-1.76v-1.76h1.758a.879.879 0 00.879-.879v-4.02c0-.934 0-1.95.913-2.73.695-.596 1.58-.955 2.788-1.131 1.274-.186 2.567-.128 3.933.178l-.32 2.148c-.518-.105-1.407-.19-2.135-.067-1.616.273-2.543 1.276-2.543 2.751v2.871c0 .486.394.88.88.88h3.268l-.44 1.757h-2.829a.879.879 0 00-.878.879v11.484h-2.637V16.758a.879.879 0 00-.88-.88zm12.363 9.726a2.64 2.64 0 01-2.637 2.637h-4.453V17.637h2.637a.879.879 0 00.853-.666l.879-3.516a.88.88 0 00-.853-1.092h-3.516v-1.992c0-.404.084-.85 1.079-1.018.778-.132 1.474.042 2.088.196.295.074.613.186.975-.059a.88.88 0 00.376-.598l.577-3.879a.879.879 0 00-.629-.975c-1.717-.488-3.816-.648-5.401-.417-1.55.227-2.73.714-3.69 1.535-1.333 1.14-1.498 2.604-1.515 3.602v3.605h-1.77a.879.879 0 00-.879.88v3.515a.88.88 0 00.88.879H15v10.605H4.395a2.64 2.64 0 01-2.637-2.637V4.395a2.64 2.64 0 012.637-2.637h21.152c1.46 0 2.695 1.207 2.695 2.637v21.21z" fill="#fff"/></svg>