<svg width="30" height="30" fill="none" xmlns="http://www.w3.org/2000/svg"><path d="M15.295 30h-.298c-2.352.005-4.525-.055-6.638-.183-1.937-.118-3.705-.788-5.114-1.936C1.886 26.773.958 25.274.487 23.428c-.41-1.608-.432-3.186-.453-4.713C.019 17.62.004 16.322 0 15.003c.003-1.325.019-2.623.034-3.719.02-1.526.042-3.104.453-4.712.47-1.846 1.399-3.345 2.758-4.453C4.654.97 6.422.3 8.36.183 10.473.055 12.646-.005 15.002 0c2.353-.005 4.525.055 6.638.183 1.937.118 3.705.787 5.114 1.936 1.36 1.108 2.287 2.607 2.758 4.453.41 1.608.432 3.186.453 4.712.015 1.096.03 2.393.034 3.713v.006c-.003 1.32-.019 2.617-.034 3.712-.02 1.527-.042 3.105-.453 4.713-.471 1.846-1.399 3.345-2.758 4.453-1.409 1.148-3.177 1.818-5.114 1.936-2.024.123-4.103.183-6.345.183zm-.298-2.344c2.313.005 4.437-.053 6.5-.179 1.465-.089 2.735-.564 3.776-1.413.961-.784 1.624-1.866 1.968-3.216.342-1.338.361-2.775.38-4.165.015-1.087.03-2.376.034-3.683a331.929 331.929 0 00-.034-3.684c-.018-1.389-.038-2.826-.38-4.164-.344-1.35-1.007-2.433-1.968-3.217-1.04-.848-2.31-1.324-3.776-1.413a102.405 102.405 0 00-6.495-.178c-2.313-.006-4.437.053-6.5.178-1.465.09-2.735.565-3.776 1.413-.962.784-1.624 1.867-1.968 3.217-.342 1.338-.362 2.775-.38 4.164-.015 1.09-.031 2.379-.034 3.687.003 1.302.019 2.591.033 3.68.02 1.39.04 2.827.38 4.165.345 1.35 1.007 2.432 1.97 3.216 1.04.849 2.31 1.324 3.775 1.413 2.063.126 4.188.184 6.495.179zm-.056-5.332c-4.039 0-7.325-3.285-7.325-7.324s3.286-7.324 7.325-7.324c4.038 0 7.324 3.285 7.324 7.324s-3.286 7.324-7.324 7.324zm0-12.305A4.986 4.986 0 009.96 15a4.986 4.986 0 004.98 4.981A4.986 4.986 0 0019.92 15a4.986 4.986 0 00-4.98-4.98zm8.144-4.687a1.758 1.758 0 100 3.516 1.758 1.758 0 000-3.516z" fill="#fff"/></svg>