<svg width="129" height="29" fill="none" xmlns="http://www.w3.org/2000/svg"><path fill="#fff" fill-opacity=".14" stroke="#fff" d="M.5.5h128v28H.5z"/><path d="M5.33 9.6v1.32h2.82V21h1.425V10.92h2.82V9.6H5.33zm12.46 8.31a4.25 4.25 0 004.245-4.245A4.25 4.25 0 0017.79 9.42c-2.34 0-4.23 1.905-4.23 4.245a4.228 4.228 0 004.23 4.245zm0-7.17c1.68 0 2.82 1.38 2.82 2.925 0 1.56-1.14 2.925-2.82 2.925s-2.805-1.365-2.805-2.925c0-1.545 1.125-2.925 2.805-2.925zm3.525 8.94h-7.05V21h7.05v-1.32zm8.996-2.4c0 .75-.24 2.595-2.4 2.595-2.175 0-2.415-1.845-2.415-2.595V9.615h-1.425v7.665c0 2.325 1.47 3.915 3.84 3.915s3.825-1.59 3.825-3.915V9.615h-1.425v7.665zm9.479-.375c1.41-.645 2.085-1.935 2.085-3.48 0-2.37-1.59-3.825-3.915-3.825h-3.735V21h1.425v-3.765h2.31c.135 0 .27 0 .405-.015l1.785 3.735h1.59l-1.95-4.05zm-4.14-5.985h2.31c.75 0 2.49.345 2.49 2.505 0 2.175-1.74 2.49-2.49 2.49h-2.31V10.92zm7.422-5.12v1.76h3.76V21h1.9V7.56h3.76V5.8h-9.42zm16.613 11.08c3.12 0 5.66-2.54 5.66-5.66s-2.54-5.66-5.66-5.66-5.64 2.54-5.64 5.66 2.5 5.66 5.64 5.66zm0-9.56c2.24 0 3.76 1.84 3.76 3.9 0 2.08-1.52 3.9-3.76 3.9-2.24 0-3.74-1.82-3.74-3.9 0-2.06 1.5-3.9 3.74-3.9zm4.7 11.92h-9.4V21h9.4v-1.76zM73.45 9.6h-5.7V21h1.425v-3.615h3.57v-1.32h-3.57V10.92h4.275V9.6zm7.82 7.305c1.41-.645 2.084-1.935 2.084-3.48 0-2.37-1.59-3.825-3.915-3.825h-3.735V21h1.425v-3.765h2.31c.135 0 .27 0 .405-.015l1.785 3.735h1.59l-1.95-4.05zm-4.14-5.985h2.31c.75 0 2.49.345 2.49 2.505 0 2.175-1.74 2.49-2.49 2.49h-2.31V10.92zm15.981 2.43a3.899 3.899 0 00-3.915-3.915 3.899 3.899 0 00-3.915 3.915V21h1.425v-3.6h4.98V21h1.425v-7.65zm-6.405 0c0-1.38 1.125-2.595 2.49-2.595 1.38 0 2.49 1.215 2.49 2.595v2.73h-4.98v-2.73zm15.281.81l-6.42-4.995v11.85h1.425V12.09l4.995 3.87v5.055h1.425v-11.4h-1.425v4.545zm12.32 4.485c-.75.75-1.785 1.215-3.045 1.215-2.64 0-4.335-2.085-4.335-4.545 0-2.475 1.695-4.56 4.335-4.56 1.26 0 2.295.465 3.045 1.215v-1.74c-.855-.51-1.89-.795-3.045-.795-3.48 0-5.775 2.64-5.775 5.88 0 3.24 2.295 5.865 5.775 5.865 1.155 0 2.19-.285 3.045-.795v-1.74zm7.864-9.045h-5.7V21h5.7v-1.32h-4.275v-2.295h3.555v-1.32h-3.555V10.92h4.275V9.6z" fill="#fff"/></svg>